<?xml version="1.0" standalone="no"?><!DOCTYPE svg PUBLIC "-//W3C//DTD SVG 1.1//EN" "http://www.w3.org/Graphics/SVG/1.1/DTD/svg11.dtd"><svg t="1599701091652" class="icon" viewBox="0 0 1024 1024" version="1.1" xmlns="http://www.w3.org/2000/svg" p-id="2472" xmlns:xlink="http://www.w3.org/1999/xlink" width="200" height="200"><defs><style type="text/css"></style></defs><path d="M366.4896 613.3248H220.1088V463.9232h146.3808v149.4016z m221.2352-149.4016h-146.432v149.4016h146.3808V463.9232h0.0512z m221.184 0H662.528v149.4016h146.3808V463.9232zM366.4896 681.984H220.1088v149.4016h146.3808V681.984z m221.2352 0h-146.432v149.4016h146.3808V681.984h0.0512z m221.184 0H662.528v149.4016h146.3808V681.984z m54.4768-519.7312c0 25.4464-20.224 46.08-45.1584 46.08a45.568 45.568 0 0 1-45.1072-46.08V46.2848c0-25.4464 20.224-46.08 45.1584-46.08s45.1584 20.6336 45.1584 46.08v115.968h-0.0512zM253.2352 46.08c0-25.4464-20.2752-46.08-45.1584-46.08a45.6192 45.6192 0 0 0-45.1584 46.08v116.0192c0 25.4464 20.2752 46.08 45.2096 46.08a45.6704 45.6704 0 0 0 45.1584-46.08V46.08h-0.0512zM918.016 113.3568v47.2064c0 56.1152-44.7488 101.7856-99.7376 101.7856-54.9888 0-99.7376-45.6704-99.7376-101.7856v-47.2064H307.8656v47.0016c0 56.1664-44.7488 101.7856-99.7376 101.7856-54.9888 0-99.7888-45.6192-99.7888-101.7856v-47.0016H0V1024h1024V113.3568h-105.984z m6.6048 809.1648H99.3792V358.1952h825.1904v564.3264h0.0512z" fill="#2EA9DF" p-id="2473"></path></svg>