<svg xmlns="http://www.w3.org/2000/svg" viewBox="0 0 653.6 653.6"><title>icon_fenlei</title><g id="图层_2" data-name="图层 2"><g id="图层_1-2" data-name="图层 1"><path d="M454.8,653.6a96.51,96.51,0,0,1-96.4-96.4V454.8a96.51,96.51,0,0,1,96.4-96.4H557.2a96.51,96.51,0,0,1,96.4,96.4V557.2a96.51,96.51,0,0,1-96.4,96.4Zm0-256a57.26,57.26,0,0,0-57.2,57.2V557.2a57.26,57.26,0,0,0,57.2,57.2H557.2a57.26,57.26,0,0,0,57.2-57.2V454.8a57.26,57.26,0,0,0-57.2-57.2ZM96.4,653.6A96.51,96.51,0,0,1,0,557.2V454.8a96.51,96.51,0,0,1,96.4-96.4H198.8a96.51,96.51,0,0,1,96.4,96.4V557.2a96.51,96.51,0,0,1-96.4,96.4Zm0-256a57.26,57.26,0,0,0-57.2,57.2V557.2a57.26,57.26,0,0,0,57.2,57.2H198.8A57.26,57.26,0,0,0,256,557.2V454.8a57.26,57.26,0,0,0-57.2-57.2ZM454.8,295.2a96.51,96.51,0,0,1-96.4-96.4V96.4A96.51,96.51,0,0,1,454.8,0H557.2a96.51,96.51,0,0,1,96.4,96.4V198.8a96.51,96.51,0,0,1-96.4,96.4Zm0-256a57.26,57.26,0,0,0-57.2,57.2V198.8A57.26,57.26,0,0,0,454.8,256H557.2a57.26,57.26,0,0,0,57.2-57.2V96.4a57.26,57.26,0,0,0-57.2-57.2ZM96.4,295.2A96.51,96.51,0,0,1,0,198.8V96.4A96.51,96.51,0,0,1,96.4,0H198.8a96.51,96.51,0,0,1,96.4,96.4V198.8a96.51,96.51,0,0,1-96.4,96.4Zm0-256A57.26,57.26,0,0,0,39.2,96.4V198.8A57.26,57.26,0,0,0,96.4,256H198.8A57.26,57.26,0,0,0,256,198.8V96.4a57.26,57.26,0,0,0-57.2-57.2Z"/></g></g></svg>