<svg xmlns="http://www.w3.org/2000/svg" viewBox="0 0 700.8 700.8"><title>icon_shezhi</title><g id="图层_2" data-name="图层 2"><g id="图层_1-2" data-name="图层 1"><path d="M248,700.8A94.35,94.35,0,0,1,156.55,630L155,624H17.6a17.6,17.6,0,1,1,0-35.2H155l1.55-6a94.46,94.46,0,0,1,182.9,0l1.55,6H683.2a17.6,17.6,0,1,1,0,35.2H341l-1.55,6A94.35,94.35,0,0,1,248,700.8Zm0-154.4a60,60,0,1,0,60,60A60.07,60.07,0,0,0,248,546.4Z"/><path d="M452.8,444.8A94.35,94.35,0,0,1,361.35,374l-1.54-6H17.6a17.6,17.6,0,1,1,0-35.2H359.8l1.54-6a94.47,94.47,0,0,1,182.9,0l1.54,6H683.2a17.6,17.6,0,1,1,0,35.2H545.8l-1.54,6A94.35,94.35,0,0,1,452.8,444.8Zm0-154.4a60,60,0,1,0,60,60A60.07,60.07,0,0,0,452.8,290.4Z"/><path d="M248,188.8A94.35,94.35,0,0,1,156.55,118L155,112H17.6a17.6,17.6,0,1,1,0-35.2H155l1.55-6a94.47,94.47,0,0,1,182.9,0l1.55,6H683.2a17.6,17.6,0,1,1,0,35.2H341l-1.55,6A94.35,94.35,0,0,1,248,188.8Zm0-154.4a60,60,0,1,0,60,60A60.07,60.07,0,0,0,248,34.4Z"/></g></g></svg>