<svg xmlns="http://www.w3.org/2000/svg" viewBox="0 0 577.17 577.13"><defs><style>.cls-1{fill:#474747;}</style></defs><title>icon_big</title><g id="图层_2" data-name="图层 2"><g id="图层_1-2" data-name="图层 1"><path class="cls-1" d="M14.78,576.61H8.29a8.69,8.69,0,0,1-6.13-2.55A8.42,8.42,0,0,1,0,567.68v-.12l.23-7.3L.72,428.18c.08-5.72,5.29-7.89,9.73-8h9.84a9.18,9.18,0,0,1,9.07,9.46l-.58,98L193.9,363.81v0a14,14,0,0,1,8.82-3.18,14.32,14.32,0,0,1,10,24.42L49.48,547.72l96,.25h.37a10.83,10.83,0,0,1,10.84,9.79v9.35a10,10,0,0,1-9.53,10Zm415.68.27a10.32,10.32,0,0,1-9.74-9.79v-9.2a11.08,11.08,0,0,1,11-9.84H432l96-.25L364.76,385.12a14.26,14.26,0,0,1,20.16-20.18L548.79,528.11l-.62-98.44a9.22,9.22,0,0,1,9.14-9.5h9.41c4.71.13,9.52,2.67,9.72,8.06l.32,141.64,0,0a7.92,7.92,0,0,1-7.8,6.54h-7.7ZM202.73,216.25a14.17,14.17,0,0,1-10.08-4.17L28.8,49.12l.46,98a9.18,9.18,0,0,1-9.1,9.47H10.3c-4.83-.17-9.69-2.7-9.69-8L.27,16.39,0,9.35V9.23A8.44,8.44,0,0,1,2.17,2.84,8.56,8.56,0,0,1,8.24.29h.35l6.75.23L147.11,0a10.2,10.2,0,0,1,9.74,9.69v9.23a11,11,0,0,1-11,9.84h-.38L49.64,29,212.81,191.9a14.26,14.26,0,0,1-10.08,24.35ZM374.84,216a14.25,14.25,0,0,1-10.08-24.32L528.11,29.11l-96-.25h-.37a11,11,0,0,1-10.83-9.82V9.74A10.06,10.06,0,0,1,430.52,0L562.16.19h6.7A8.7,8.7,0,0,1,575,2.74a8.29,8.29,0,0,1,2.12,6.39v.13l-.23,7.24-.45,132c-.08,5.69-5.26,7.89-9.69,8h-9.47a9.18,9.18,0,0,1-9.11-9.49l.62-98.45-157,156.45v0l-6.83,6.79A14.16,14.16,0,0,1,374.84,216Z"/></g></g></svg>