<svg xmlns="http://www.w3.org/2000/svg" viewBox="0 0 645.22 646.52"><title>icon_out</title><g id="图层_2" data-name="图层 2"><g id="图层_1-2" data-name="图层 1"><path d="M330.13,336.85a24.75,24.75,0,0,1-25.21-24.2V24.32C304.92,10.92,316.21,0,330.13,0s25.29,11,25.29,24.32V312.52a24.79,24.79,0,0,1-25.25,24.33Z"/><path d="M322.54,646.52A327.86,327.86,0,0,1,94.46,555.37a310.1,310.1,0,0,1-69.14-98.91A301.52,301.52,0,0,1,36.91,191,318.44,318.44,0,0,1,135.06,82.44a25.84,25.84,0,0,1,35.24,5.65,23.69,23.69,0,0,1-5.9,33.85,269.23,269.23,0,0,0-82.8,91.65A251.06,251.06,0,0,0,50.45,335.26c0,70.15,28.33,136.09,79.76,185.66A279.23,279.23,0,0,0,515,521a256.15,256.15,0,0,0,79.68-185.71,250.89,250.89,0,0,0-31.07-121.67A269,269,0,0,0,480.72,122a23.69,23.69,0,0,1-6.2-33.39l.42-.5a25.81,25.81,0,0,1,35.2-5.65A318,318,0,0,1,608.24,191a301.22,301.22,0,0,1,11.64,265.51,309.57,309.57,0,0,1-69.14,98.95,322.84,322.84,0,0,1-102.53,66.7,331.81,331.81,0,0,1-125.68,24.41Z"/></g></g></svg>