<svg xmlns="http://www.w3.org/2000/svg" xmlns:xlink="http://www.w3.org/1999/xlink" viewBox="0 0 606.5 658.56"><defs><style>.cls-1{fill:none;}.cls-2{clip-path:url(#clip-path);}.cls-3{fill:#757575;}</style><clipPath id="clip-path" transform="translate(-0.46 -0.23)"><rect class="cls-1" width="606.96" height="659.76"/></clipPath></defs><title>icon_grzh</title><g id="图层_2" data-name="图层 2"><g id="图层_1-2" data-name="图层 1"><g class="cls-2"><path class="cls-3" d="M206,367.22C90.53,404.89,18.45,506.91.7,633.8a21.81,21.81,0,0,0,21.38,25H585.37a21,21,0,0,0,3-.21,21.88,21.88,0,0,0,18.36-24.79c-12.85-90.09-44.44-170.8-117.86-223a21.39,21.39,0,0,0-30.08,5.37,22.15,22.15,0,0,0,5.29,30.55C520.61,486.94,543.32,546.8,559.32,615H48.12C77.53,488,173.41,395.24,303.72,395.24a23.39,23.39,0,0,0,2.51-.53c106.24-1.44,191.68-89.21,191.86-197.11C498.09,88.79,410.88.23,303.72.23S109.36,88.79,109.36,197.61c0,72.5,39.13,135.31,96.62,169.61ZM454.89,197.61c0,84.65-67.81,153.51-151.18,153.51S152.55,282.26,152.55,197.61,220.36,44.1,303.72,44.1,454.89,113,454.89,197.61Zm0,0" transform="translate(-0.46 -0.23)"/></g></g></g></svg>