<?xml version="1.0" standalone="no"?><!DOCTYPE svg PUBLIC "-//W3C//DTD SVG 1.1//EN" "http://www.w3.org/Graphics/SVG/1.1/DTD/svg11.dtd"><svg t="1597125078588" class="icon" viewBox="0 0 1024 1024" version="1.1" xmlns="http://www.w3.org/2000/svg" p-id="1764" width="48" height="48" xmlns:xlink="http://www.w3.org/1999/xlink"><defs><style type="text/css"></style></defs><path d="M64 127.5v-63a0.5 0.5 0 0 1 0.5-0.5h319a0.5 0.5 0 0 1 0.5 0.5v63a0.5 0.5 0 0 1-0.5 0.5H173.255L380.43 335.175a0.5 0.5 0 0 1 0 0.708l-44.547 44.547a0.5 0.5 0 0 1-0.708 0L128 173.255V383.5a0.5 0.5 0 0 1-0.5 0.5h-63a0.5 0.5 0 0 1-0.5-0.5v-256z m0 769v-256a0.5 0.5 0 0 1 0.5-0.5h63a0.5 0.5 0 0 1 0.5 0.5v210.245L335.175 643.57a0.5 0.5 0 0 1 0.708 0l44.547 44.547a0.5 0.5 0 0 1 0 0.708L173.255 896H383.5a0.5 0.5 0 0 1 0.5 0.5v63a0.5 0.5 0 0 1-0.5 0.5h-319a0.5 0.5 0 0 1-0.5-0.5v-63z m896-769v256a0.5 0.5 0 0 1-0.5 0.5h-63a0.5 0.5 0 0 1-0.5-0.5V173.255L688.825 380.43a0.5 0.5 0 0 1-0.708 0l-44.547-44.547a0.5 0.5 0 0 1 0-0.708L850.745 128H640.5a0.5 0.5 0 0 1-0.5-0.5v-63a0.5 0.5 0 0 1 0.5-0.5h319a0.5 0.5 0 0 1 0.5 0.5v63z m0 769v63a0.5 0.5 0 0 1-0.5 0.5h-319a0.5 0.5 0 0 1-0.5-0.5v-63a0.5 0.5 0 0 1 0.5-0.5h210.245L643.57 688.825a0.5 0.5 0 0 1 0-0.708l44.547-44.547a0.5 0.5 0 0 1 0.708 0L896 850.745V640.5a0.5 0.5 0 0 1 0.5-0.5h63a0.5 0.5 0 0 1 0.5 0.5v256z" fill="#ffffff" p-id="1765"></path></svg>